name C:\Users\u0101727\Documents\MyRepositories\predictivesimulations\OpenSimModel\subject1\EMG\EMG_gait_63.mot
datacolumns 25
datarows 11
range 3.90100000 3.91100000
endheader
time	HamL_r	TA_r	PerL_r	GL_r	HamM_r	Sol_r	VL_r	VM_r	PerB_l	TA_l	PerL_l	GL_l	GM_l	Sol_l	VL_l	VM_l	AddL_l	RF_l	TFL_l	GluMed_l	HamL_l	HamM_l	GluMed_r	RF_r	
          3.90100000	          0.00251682	          0.00311691	          0.00290178	          0.00458036	          0.00467558	          0.06464423	          0.01965963	          0.00466680	          0.06745660	          0.21283876	          0.07179042	          0.02768241	          0.02874126	          0.03520327	          0.04349801	          0.01685387	          0.00939194	          0.01773469	          0.01260205	          0.00721274	          0.03047694	          0.00746518	          0.07293632	          0.00606401	
          3.90200000	          0.00249266	          0.00310383	          0.00288751	          0.00458256	          0.00466730	          0.06589713	          0.01946797	          0.00464485	          0.06670198	          0.21263651	          0.07162218	          0.02769318	          0.02875372	          0.03505267	          0.04297023	          0.01675739	          0.00926351	          0.01748492	          0.01198420	          0.00711370	          0.03116552	          0.00752738	          0.07348829	          0.00594308	
          3.90300000	          0.00246990	          0.00309094	          0.00287349	          0.00458349	          0.00465525	          0.06707931	          0.01928582	          0.00462227	          0.06589592	          0.21236531	          0.07144887	          0.02768878	          0.02874951	          0.03487271	          0.04239589	          0.01664681	          0.00913729	          0.01722740	          0.01139945	          0.00701761	          0.03183870	          0.00759059	          0.07400022	          0.00583373	
          3.90400000	          0.00244864	          0.00307820	          0.00285990	          0.00458311	          0.00463952	          0.06818550	          0.01911495	          0.00459924	          0.06504430	          0.21203401	          0.07127059	          0.02767131	          0.02873076	          0.03466520	          0.04178080	          0.01652292	          0.00901424	          0.01696343	          0.01084675	          0.00692451	          0.03249482	          0.00765449	          0.07446652	          0.00573621	
          3.90500000	          0.00242894	          0.00306554	          0.00284694	          0.00458142	          0.00462037	          0.06921101	          0.01895712	          0.00457589	          0.06415445	          0.21164905	          0.07108670	          0.02764283	          0.02869955	          0.03443274	          0.04113060	          0.01638638	          0.00889525	          0.01669421	          0.01032495	          0.00683444	          0.03313202	          0.00771883	          0.07488156	          0.00565072	
          3.90600000	          0.00241085	          0.00305289	          0.00283478	          0.00457837	          0.00459811	          0.07015124	          0.01881396	          0.00455232	          0.06323428	          0.21121504	          0.07089593	          0.02760532	          0.02865781	          0.03417821	          0.04045055	          0.01623772	          0.00878112	          0.01642089	          0.00983281	          0.00674752	          0.03374828	          0.00778332	          0.07524000	          0.00557743	
          3.90700000	          0.00239442	          0.00304017	          0.00282360	          0.00457394	          0.00457309	          0.07100172	          0.01868694	          0.00452858	          0.06229142	          0.21073490	          0.07069673	          0.02756070	          0.02860722	          0.03390440	          0.03974545	          0.01607742	          0.00867256	          0.01614450	          0.00936897	          0.00666388	          0.03434155	          0.00784768	          0.07553677	          0.00551650	
          3.90800000	          0.00237964	          0.00302733	          0.00281354	          0.00456806	          0.00454568	          0.07175849	          0.01857733	          0.00450467	          0.06133296	          0.21020931	          0.07048760	          0.02751070	          0.02854928	          0.03361400	          0.03901965	          0.01590586	          0.00857018	          0.01586588	          0.00893203	          0.00658359	          0.03491005	          0.00791159	          0.07576687	          0.00546805	
          3.90900000	          0.00236652	          0.00301440	          0.00280473	          0.00456069	          0.00451622	          0.07241886	          0.01848626	          0.00448061	          0.06036569	          0.20963678	          0.07026717	          0.02745679	          0.02848521	          0.03330945	          0.03827705	          0.01572354	          0.00847453	          0.01558567	          0.00852052	          0.00650670	          0.03545237	          0.00797468	          0.07592518	          0.00543221	
          3.91000000	          0.00235505	          0.00300142	          0.00279731	          0.00455172	          0.00448507	          0.07298191	          0.01841479	          0.00445647	          0.05939617	          0.20901456	          0.07003426	          0.02740016	          0.02841596	          0.03299287	          0.03752123	          0.01553110	          0.00838605	          0.01530432	          0.00813305	          0.00643320	          0.03596746	          0.00803659	          0.07600649	          0.00540912	
          3.91100000	          0.00234521	          0.00298849	          0.00279140	          0.00454101	          0.00445254	          0.07344813	          0.01836403	          0.00443237	          0.05843060	          0.20833926	          0.06978804	          0.02734164	          0.02834215	          0.03266603	          0.03675557	          0.01532938	          0.00830519	          0.01502207	          0.00776833	          0.00636308	          0.03645455	          0.00809702	          0.07600545	          0.00539892	
